<svg width="464" height="414" viewBox="0 0 464 414" fill="none" xmlns="http://www.w3.org/2000/svg">
<path d="M146.208 218L135.008 198.54H128.918V218H120.938V169.35H137.738C141.471 169.35 144.621 170.003 147.188 171.31C149.801 172.617 151.738 174.367 152.998 176.56C154.304 178.753 154.958 181.203 154.958 183.91C154.958 187.083 154.024 189.977 152.158 192.59C150.338 195.157 147.514 196.907 143.688 197.84L155.728 218H146.208ZM128.918 192.17H137.738C140.724 192.17 142.964 191.423 144.458 189.93C145.998 188.437 146.768 186.43 146.768 183.91C146.768 181.39 146.021 179.43 144.528 178.03C143.034 176.583 140.771 175.86 137.738 175.86H128.918V192.17ZM187.356 218.49C182.829 218.49 178.653 217.44 174.826 215.34C171.046 213.193 168.036 210.23 165.796 206.45C163.603 202.623 162.506 198.33 162.506 193.57C162.506 188.81 163.603 184.54 165.796 180.76C168.036 176.98 171.046 174.04 174.826 171.94C178.653 169.793 182.829 168.72 187.356 168.72C191.929 168.72 196.106 169.793 199.886 171.94C203.713 174.04 206.723 176.98 208.916 180.76C211.109 184.54 212.206 188.81 212.206 193.57C212.206 198.33 211.109 202.623 208.916 206.45C206.723 210.23 203.713 213.193 199.886 215.34C196.106 217.44 191.929 218.49 187.356 218.49ZM187.356 211.56C190.576 211.56 193.446 210.837 195.966 209.39C198.486 207.897 200.446 205.797 201.846 203.09C203.293 200.337 204.016 197.163 204.016 193.57C204.016 189.977 203.293 186.827 201.846 184.12C200.446 181.413 198.486 179.337 195.966 177.89C193.446 176.443 190.576 175.72 187.356 175.72C184.136 175.72 181.266 176.443 178.746 177.89C176.226 179.337 174.243 181.413 172.796 184.12C171.396 186.827 170.696 189.977 170.696 193.57C170.696 197.163 171.396 200.337 172.796 203.09C174.243 205.797 176.226 207.897 178.746 209.39C181.266 210.837 184.136 211.56 187.356 211.56ZM236.089 218.49C232.822 218.49 229.882 217.93 227.269 216.81C224.655 215.643 222.602 214.01 221.109 211.91C219.615 209.81 218.869 207.36 218.869 204.56H227.409C227.595 206.66 228.412 208.387 229.859 209.74C231.352 211.093 233.429 211.77 236.089 211.77C238.842 211.77 240.989 211.117 242.529 209.81C244.069 208.457 244.839 206.73 244.839 204.63C244.839 202.997 244.349 201.667 243.369 200.64C242.435 199.613 241.245 198.82 239.799 198.26C238.399 197.7 236.439 197.093 233.919 196.44C230.745 195.6 228.155 194.76 226.149 193.92C224.189 193.033 222.509 191.68 221.109 189.86C219.709 188.04 219.009 185.613 219.009 182.58C219.009 179.78 219.709 177.33 221.109 175.23C222.509 173.13 224.469 171.52 226.989 170.4C229.509 169.28 232.425 168.72 235.739 168.72C240.452 168.72 244.302 169.91 247.289 172.29C250.322 174.623 252.002 177.843 252.329 181.95H243.509C243.369 180.177 242.529 178.66 240.989 177.4C239.449 176.14 237.419 175.51 234.899 175.51C232.612 175.51 230.745 176.093 229.299 177.26C227.852 178.427 227.129 180.107 227.129 182.3C227.129 183.793 227.572 185.03 228.459 186.01C229.392 186.943 230.559 187.69 231.959 188.25C233.359 188.81 235.272 189.417 237.699 190.07C240.919 190.957 243.532 191.843 245.539 192.73C247.592 193.617 249.319 194.993 250.719 196.86C252.165 198.68 252.889 201.13 252.889 204.21C252.889 206.683 252.212 209.017 250.859 211.21C249.552 213.403 247.615 215.177 245.049 216.53C242.529 217.837 239.542 218.49 236.089 218.49ZM291.635 208.06H271.265L267.765 218H259.435L276.865 169.28H286.105L303.535 218H295.135L291.635 208.06ZM289.395 201.55L281.485 178.94L273.505 201.55H289.395ZM351.083 218H343.103L319.093 181.67V218H311.113V169.28H319.093L343.103 205.54V169.28H351.083V218ZM149.577 239.35C154.757 239.35 159.283 240.353 163.157 242.36C167.077 244.32 170.087 247.167 172.187 250.9C174.333 254.587 175.407 258.903 175.407 263.85C175.407 268.797 174.333 273.09 172.187 276.73C170.087 280.37 167.077 283.17 163.157 285.13C159.283 287.043 154.757 288 149.577 288H133.687V239.35H149.577ZM149.577 281.49C155.27 281.49 159.633 279.95 162.667 276.87C165.7 273.79 167.217 269.45 167.217 263.85C167.217 258.203 165.7 253.793 162.667 250.62C159.633 247.447 155.27 245.86 149.577 245.86H141.667V281.49H149.577ZM212.645 278.06H192.275L188.775 288H180.445L197.875 239.28H207.115L224.545 288H216.145L212.645 278.06ZM210.405 271.55L202.495 248.94L194.515 271.55H210.405ZM274.054 239.35L255.784 288H246.544L228.204 239.35H236.744L251.164 279.81L265.654 239.35H274.054ZM288.708 239.35V288H280.728V239.35H288.708ZM315.075 239.35C320.255 239.35 324.781 240.353 328.655 242.36C332.575 244.32 335.585 247.167 337.685 250.9C339.831 254.587 340.905 258.903 340.905 263.85C340.905 268.797 339.831 273.09 337.685 276.73C335.585 280.37 332.575 283.17 328.655 285.13C324.781 287.043 320.255 288 315.075 288H299.185V239.35H315.075ZM315.075 281.49C320.768 281.49 325.131 279.95 328.165 276.87C331.198 273.79 332.715 269.45 332.715 263.85C332.715 258.203 331.198 253.793 328.165 250.62C325.131 247.447 320.768 245.86 315.075 245.86H307.165V281.49H315.075Z" fill="white"/>
<path d="M34.709 221.432C46.9292 219.4 53.0417 213.788 53.0417 204.595C53.0417 200.535 52.4399 193.586 51.2386 183.748C50.0421 173.277 49.445 165.688 49.445 160.981C49.445 153.283 51.8711 147.404 56.7233 143.344C61.5755 139.28 68.0727 137.246 76.2171 137.246H86.6484V149.914H79.2757C74.6052 149.914 71.1313 150.853 68.8538 152.727C66.5741 154.597 65.4365 157.669 65.4365 161.942C65.4365 165.041 65.6749 168.863 66.154 173.405C66.6378 177.949 66.9399 181.024 67.0602 182.628C68.2544 192.887 68.8538 200.371 68.8538 205.075C68.8538 210.742 67.2632 215.473 64.0866 219.268C60.9147 223.064 56.0342 225.602 49.445 226.882V227.202C56.0342 228.488 60.9147 231.055 64.0866 234.9C67.2632 238.747 68.8538 243.504 68.8538 249.169C68.8538 253.875 68.2544 261.357 67.0602 271.616C66.9399 273.222 66.6378 276.297 66.154 280.839C65.6749 285.383 65.4365 289.202 65.4365 292.302C65.4365 296.581 66.5741 299.655 68.8538 301.525C71.1313 303.395 74.6052 304.33 79.2757 304.33H86.6484V316.998H76.2171C68.0727 316.998 61.5755 314.964 56.7233 310.9C51.8711 306.84 49.445 300.961 49.445 293.262C49.445 288.562 50.0421 280.973 51.2386 270.495C52.4399 260.664 53.0417 253.715 53.0417 249.649C53.0417 240.457 46.9292 234.846 34.709 232.811V221.432Z" fill="#1AEDE6"/>
<path d="M434.548 234.371C422.243 236.416 416.093 242.068 416.093 251.326C416.093 255.416 416.697 262.411 417.905 272.316C419.107 282.862 419.708 290.503 419.708 295.243C419.708 302.992 417.266 308.909 412.383 312.999C407.498 317.086 400.953 319.13 392.747 319.13H382.25V306.378H389.67C394.376 306.378 397.876 305.435 400.167 303.548C402.457 301.666 403.604 298.574 403.604 294.275C403.604 291.152 403.36 287.305 402.877 282.727C402.398 278.151 402.098 275.058 401.98 273.445C400.771 263.114 400.167 255.578 400.167 250.838C400.167 245.134 401.765 240.343 404.963 236.469C408.158 232.594 413.074 230.012 419.708 228.719V228.399C413.074 227.109 408.158 224.554 404.963 220.735C401.765 216.911 400.167 212.148 400.167 206.441C400.167 201.707 400.771 194.175 401.98 183.843C402.098 182.225 402.398 179.132 402.877 174.561C403.36 169.985 403.604 166.136 403.604 163.013C403.604 158.707 402.457 155.613 400.167 153.731C397.876 151.844 394.376 150.901 389.67 150.901H382.25V138.149H392.747C400.953 138.149 407.498 140.195 412.383 144.289C417.266 148.378 419.708 154.295 419.708 162.044C419.708 166.778 419.107 174.422 417.905 184.971C416.697 194.872 416.093 201.867 416.093 205.961C416.093 215.216 422.243 220.865 434.548 222.908V234.371Z" fill="#1AEDE6"/>
</svg>
